# xmcd
#
# Track frame offsets: 
#        150
#        11585
#        26192
#        38655
#        51690
#        63087
#        75232
#        86195
#        98221
#        108316
#        119109
#        131082
#        143504
#        154677
#        165832
#        179281
#        189925
#        204401
#        217478
#        229775
#        240105
#        249958
#        260872
#        274736
#        287719
#        299915
#        311529
#        323562
#
# Disc length: 4467 seconds
#
# Revision: 0
# Processed by: cddbd v1.5.2PL0 Copyright (c) Steve Scherf et al.
# Submitted via: ExactAudioCopy v0.99pb5
#
DISCID=9511711c
DTITLE=The Louvin Brothers  - The Christian Life - CD2
DYEAR=1958
DGENRE=Country
TTITLE0=Katie Dear (1956)
TTITLE1=My Brother's Will (1956)
TTITLE2=Take The News To Mother (1956)
TTITLE3=Let Her Go, God Bless Her (1956)
TTITLE4=A Tiny Broken Heart (1956)
TTITLE5=Alabama (1956)
TTITLE6=Plenty Of Everything But You (1957)
TTITLE7=Cash On The Barrelhead (1956)
TTITLE8=You're Running Wild (1956)
TTITLE9=I Won't Have To Cross Jordan Alone (1957)
TTITLE10=Praying (1957)
TTITLE11=Wait A Little Longer Please Jesus (1957)
TTITLE12=This Little Light Of Mine (1957)
TTITLE13=I Steal Away And Pray (1957) 
TTITLE14=There's No Excuse (1957)
TTITLE15=Are You Washed In The Blood (1957)
TTITLE16=Lord, I'm Coming Home (1957)
TTITLE17=Thankful (1957)
TTITLE18=Take Me Back Into Your Heart (1958)
TTITLE19=Here Today And Gone Tomorrow (1958)
TTITLE20=We Could (1958)
TTITLE21=Tennessee Waltz (1958)
TTITLE22=Too Late (1958)
TTITLE23=Are You Teasing Me (1958)
TTITLE24=Nobody's Darling But Mine (1958)
TTITLE25=Don't Let Your Sweet Love Die (1958)
TTITLE26=I Wonder Where You Are Tonight (1958)
TTITLE27=Why Not Confess (1958)
EXTD=
EXTT0=
EXTT1=
EXTT2=
EXTT3=
EXTT4=
EXTT5=
EXTT6=
EXTT7=
EXTT8=
EXTT9=
EXTT10=
EXTT11=
EXTT12=
EXTT13=
EXTT14=
EXTT15=
EXTT16=
EXTT17=
EXTT18=
EXTT19=
EXTT20=
EXTT21=
EXTT22=
EXTT23=
EXTT24=
EXTT25=
EXTT26=
EXTT27=
PLAYORDER=
